<svg width="96" height="96" viewBox="0 0 96 96" fill="currentColor" xmlns="http://www.w3.org/2000/svg">
<path d="M10 10H78V78H10V10Z" fill="#currentColor"/>
<path fill-rule="evenodd" clip-rule="evenodd" d="M8 10C8 8.89543 8.89543 8 10 8H78C79.1046 8 80 8.89543 80 10V78C80 79.1046 79.1046 80 78 80H10C8.89543 80 8 79.1046 8 78V10ZM12 12V76H76V12H12Z" fill="black"/>
<path fill-rule="evenodd" clip-rule="evenodd" d="M48 28L48 20L40 20L40 28L48 28Z" fill="black"/>
<path fill-rule="evenodd" clip-rule="evenodd" d="M48 68L48 36L40 36L40 68L48 68Z" fill="black"/>
</svg>
