<svg width="318" height="367" viewBox="0 0 318 367" fill="none" xmlns="http://www.w3.org/2000/svg">
<path fill-rule="evenodd" clip-rule="evenodd" d="M70.2566 172.907L118.303 196.16L128.534 230.909L112.346 214.762L82.6892 204.75L70.2566 172.907ZM247.743 172.907L199.697 196.16L189.466 230.909L205.719 214.762L235.311 204.75L247.743 172.907ZM214.201 313.972L244.052 230.521L251.175 268.5L300.063 231.619L318 190.992L271.378 103.086L268.011 122.462L244.894 89.7154L292.682 47.6674L301.294 133.314L312.107 0L197.495 69.6279L159.097 57.485L120.699 69.6279L6.08668 0L16.9005 133.314L25.5125 47.6674L73.3001 89.7154L50.1184 122.462L46.816 103.086L0 191.057L17.9366 231.684L66.8248 268.565L73.9476 230.586L103.798 314.036L126.203 248.09L117.591 349.044L147.96 367L128.793 338.58H159.032H189.272L170.105 367L200.474 349.044L191.862 248.09L214.201 313.972Z" fill="black"/>
</svg>
